<?xml version="1.0" encoding="utf-8"?>
<!-- Generator: Adobe Illustrator 23.0.3, SVG Export Plug-In . SVG Version: 6.00 Build 0)  -->
<svg version="1.1" id="Layer_1" xmlns="http://www.w3.org/2000/svg" xmlns:xlink="http://www.w3.org/1999/xlink" x="0px" y="0px"
	 viewBox="0 0 121.977 107.484" enable-background="new 0 0 121.977 107.484" xml:space="preserve">
<path fill="#FFFFFF" d="M0.002,52.463c0.214-0.612,0.393-2.094,1.103-2.986c3.278-4.116,6.477-8.393,10.15-11.973
	c2.797-2.726,5.648-1.368,8.225,1.576c7.793,8.906,15.718,17.657,22.931,27.232c2.231,2.96,3.755,2.824,6.106,0.001
	c12.438-14.927,25.016-29.691,37.597-44.451c5.496-6.448,11.087-12.784,16.686-19.106c3.256-3.677,5.866-3.671,9.211,0.005
	c2.372,2.608,4.641,5.349,6.91,8.084c4.083,4.924,4.096,8.229-0.094,13.194c-13.037,15.448-26.114,30.849-39.176,46.267
	c-9.473,11.181-18.936,22.374-28.427,33.533c-4.148,4.878-6.905,4.864-11.089-0.063C27.756,89.199,15.406,74.588,3.031,60.007
	C1.4,58.086-0.06,56.105,0.002,52.463z"/>
</svg>
